<svg width="12" height="11" viewBox="0 0 12 11" fill="none" xmlns="http://www.w3.org/2000/svg">
<path d="M5.04089 11C4.89219 11 4.75836 10.9519 4.63941 10.8558C4.53532 10.7459 4.48327 10.6223 4.48327 10.485V6.75655H0.557621C0.408922 6.75655 0.275093 6.70849 0.156134 6.61236C0.0520446 6.5025 0 6.3789 0 6.24157V4.65543C0 4.50437 0.0520446 4.38077 0.156134 4.28464C0.260223 4.17478 0.394052 4.11985 0.557621 4.11985H4.48327V0.514981C4.48327 0.36392 4.53532 0.240324 4.63941 0.144195C4.75836 0.0480647 4.89219 0 5.04089 0H6.95911C7.12268 0 7.25651 0.0480647 7.36059 0.144195C7.47955 0.240324 7.53903 0.36392 7.53903 0.514981V4.11985H11.4201C11.5836 4.11985 11.7175 4.17478 11.8216 4.28464C11.9405 4.38077 12 4.50437 12 4.65543V6.24157C12 6.39263 11.9405 6.51623 11.8216 6.61236C11.7175 6.70849 11.5836 6.75655 11.4201 6.75655H7.53903V10.485C7.53903 10.6361 7.47955 10.7597 7.36059 10.8558C7.25651 10.9519 7.12268 11 6.95911 11H5.04089Z" fill="#FF6633"/>
</svg>
