<svg width="30" height="30" viewBox="0 0 30 30" fill="none" xmlns="http://www.w3.org/2000/svg">
<path d="M3.47314 23.0891C3.47314 17.325 0.487305 13.3666 0.487305 10.5891C0.487305 7.81162 2.08397 1.97746 14.8615 1.97746C27.639 1.97746 29.514 9.82496 29.514 12.88C29.5148 27.1858 3.47314 33.2975 3.47314 23.0891Z" fill="#FCD5BA"/>
<path d="M13.0894 20.9341C12.9327 21.0908 12.7211 21.1783 12.5002 21.1783C12.2794 21.1783 12.0669 21.0908 11.9111 20.9341L6.91105 15.9341C6.58522 15.6083 6.58605 15.0808 6.91105 14.7558L8.08939 13.5775C8.41522 13.2516 8.94272 13.2516 9.26772 13.5775L12.5002 16.8091L20.7327 8.57746C21.0585 8.25163 21.5861 8.25163 21.911 8.57746L23.0894 9.75579C23.4152 10.0816 23.4152 10.6091 23.0894 10.9341L13.0894 20.9341Z" fill="#FF6633"/>
<path d="M8.78539 15.9339C8.45956 15.6081 8.46039 15.0806 8.78539 14.7556L9.61539 13.9255L9.26706 13.5772C8.94122 13.2514 8.41372 13.2514 8.08872 13.5772L6.91039 14.7556C6.58456 15.0814 6.58456 15.6089 6.91039 15.9339L11.9104 20.9339C12.0671 21.0906 12.2787 21.1781 12.4996 21.1781C12.7204 21.1781 12.9329 21.0906 13.0887 20.9339L13.4371 20.5856L8.78539 15.9339Z" fill="black" fill-opacity="0.1"/>
</svg>
