<svg width="22" height="22" viewBox="0 0 22 22" fill="none" xmlns="http://www.w3.org/2000/svg">
<path fill-rule="evenodd" clip-rule="evenodd" d="M0.0305487 3.62795C-0.20141 1.78205 1.37862 0.5 3.07554 0.5H6.6672C7.39213 0.5 8.01333 1.01844 8.14301 1.73167L8.74935 5.06653C8.93046 6.06268 8.67133 7.08845 8.03884 7.87906L7.31545 8.7833C7.18654 8.94444 7.17475 9.15809 7.27434 9.32047C7.7439 10.0862 8.58857 11.3797 9.35533 12.1464C10.1221 12.9132 11.4156 13.7579 12.1813 14.2274C12.3437 14.327 12.5573 14.3152 12.7185 14.1863L13.6227 13.4629C14.4133 12.8304 15.4391 12.5713 16.4352 12.7524L19.7701 13.3588C20.4833 13.4885 21.0018 14.1096 21.0018 14.8346V18.1816C21.0018 20.0032 19.5508 21.624 17.6171 21.313C14.3045 20.7803 9.56936 19.0768 5.63538 14.8402C1.81033 10.7209 0.393311 6.51475 0.0305487 3.62795ZM3.07554 1.5C1.81103 1.5 0.885469 2.41084 1.02275 3.50326C1.36104 6.19537 2.69444 10.2034 6.36818 14.1598C10.1177 18.1977 14.6307 19.8199 17.7758 20.3257C18.9703 20.5178 20.0018 19.5285 20.0018 18.1816V14.8346C20.0018 14.5929 19.829 14.3859 19.5912 14.3426L16.2564 13.7363C15.5448 13.6069 14.8121 13.792 14.2474 14.2438L13.3432 14.9672C12.8653 15.3495 12.1937 15.4081 11.6585 15.0799C10.8953 14.6119 9.50796 13.7133 8.64823 12.8536C7.78849 11.9938 6.8899 10.6064 6.42187 9.84326C6.09367 9.30809 6.15231 8.63644 6.53458 8.15861L7.25797 7.25437C7.70975 6.68964 7.89485 5.95695 7.76548 5.24541L7.15914 1.91056C7.11591 1.67281 6.90885 1.5 6.6672 1.5H3.07554Z" fill="#414141"/>
</svg>
